<?xml version="1.0" encoding="iso-8859-1"?>
<!-- Generator: Adobe Illustrator 19.1.0, SVG Export Plug-In . SVG Version: 6.00 Build 0)  -->
<svg version="1.1" id="Capa_1" xmlns="http://www.w3.org/2000/svg" xmlns:xlink="http://www.w3.org/1999/xlink" x="0px" y="0px"
	 viewBox="0 0 620.269 620.269" style="enable-background:new 0 0 620.269 620.269;" xml:space="preserve">
<g>
	<g>
		<g>
			<path style="fill:#010002;" d="M363.382,236.643l-13.502,13.229c-9.809-11.177-23.956-18.524-39.979-19.257
				c-16.824-0.791-32.29,5.882-43.243,17.127l-13.229-13.424c14.597-14.772,35.046-23.595,57.37-22.54
				C331.707,212.765,350.299,222.193,363.382,236.643z M226.199,206.571l14.821,15.085c17.977-18.075,43.165-28.929,70.57-27.64
				c25.647,1.192,48.333,12.633,64.473,30.151l15.046-14.841c-19.726-21.162-47.356-34.997-78.542-36.482
				C279.016,171.3,248.221,184.461,226.199,206.571z M308.425,244.537c-14.274,0-25.852,11.558-25.852,25.823
				c0,14.284,11.578,25.862,25.852,25.862c14.255,0,25.813-11.578,25.813-25.862C334.247,256.096,322.689,244.537,308.425,244.537z
				 M199.507,179.468l15.71,15.955c25.1-24.894,60.047-39.765,98.063-38.006c35.202,1.651,66.496,17.176,88.967,40.976
				l15.974-15.681c-26.301-27.708-62.783-45.773-103.867-47.698C269.823,132.991,228.934,150.343,199.507,179.468z M505.538,195.413
				c0,107.931-195.403,424.856-195.403,424.856S114.731,303.334,114.731,195.413C114.731,87.511,202.223,0,310.134,0
				S505.538,87.511,505.538,195.413z M461.328,195.413c0-83.379-67.854-151.184-151.193-151.184
				c-83.359,0-151.203,67.805-151.203,151.184c0,83.32,67.844,151.203,151.203,151.203
				C393.464,346.616,461.328,278.733,461.328,195.413z M317.12,97.233c-54.752-2.56-105.205,18.632-141.404,54.43l15.339,15.574
				c31.988-31.675,76.588-50.404,125.009-48.147c44.62,2.032,84.287,21.573,112.884,51.655l15.574-15.378
				C412.184,121.57,367.397,99.578,317.12,97.233z"/>
		</g>
	</g>
</g>
<g>
</g>
<g>
</g>
<g>
</g>
<g>
</g>
<g>
</g>
<g>
</g>
<g>
</g>
<g>
</g>
<g>
</g>
<g>
</g>
<g>
</g>
<g>
</g>
<g>
</g>
<g>
</g>
<g>
</g>
</svg>
